<?xml version="1.0" encoding="UTF-8"?>
<svg width="161px" height="25px" viewBox="0 0 161 25" version="1.1" xmlns="http://www.w3.org/2000/svg" xmlns:xlink="http://www.w3.org/1999/xlink">
    <!-- Generator: Sketch 40.3 (33839) - http://www.bohemiancoding.com/sketch -->
    <title>CODECAM 2</title>
    <desc>Created with Sketch.</desc>
    <defs></defs>
    <g id="Page-1" stroke="none" stroke-width="1" fill="none" fill-rule="evenodd">
        <path d="M5.699,12.318 C5.699,13.7480071 5.89699802,14.9524951 6.293,15.9315 C6.68900198,16.9105049 7.22799659,17.702497 7.91,18.3075 C8.59200341,18.912503 9.3729956,19.3469987 10.253,19.611 C11.1330044,19.8750013 12.0569952,20.007 13.025,20.007 C13.619003,20.007 14.1744974,19.9685004 14.6915,19.8915 C15.2085026,19.8144996 15.6539981,19.7210005 16.028,19.611 C16.4680022,19.5009994 16.8749981,19.3800007 17.249,19.248 L17.975,23.406 C17.5569979,23.5820009 17.0620029,23.7359993 16.49,23.868 C15.9839975,24.0000007 15.3900034,24.1154995 14.708,24.2145 C14.0259966,24.3135005 13.2340045,24.363 12.332,24.363 C10.32999,24.363 8.58100748,24.0770029 7.085,23.505 C5.58899252,22.9329971 4.35700484,22.1245052 3.389,21.0795 C2.42099516,20.0344948 1.69500242,18.7750074 1.211,17.301 C0.72699758,15.8269926 0.485,14.1770091 0.485,12.351 C0.485,10.5029908 0.73799747,8.83650742 1.244,7.3515 C1.75000253,5.86649257 2.50899494,4.60150522 3.521,3.5565 C4.53300506,2.51149478 5.78149258,1.7085028 7.2665,1.1475 C8.75150742,0.586497195 10.4619903,0.306 12.398,0.306 C13.3000045,0.306 14.0974965,0.355499505 14.7905,0.4545 C15.4835035,0.553500495 16.0609977,0.65799945 16.523,0.768 C17.0950029,0.92200077 17.578998,1.08699912 17.975,1.263 L17.249,5.421 C16.8749981,5.28899934 16.4680022,5.15700066 16.028,5.025 C15.6099979,4.93699956 15.1535025,4.85450038 14.6585,4.7775 C14.1634975,4.70049962 13.6080031,4.662 12.992,4.662 C12.0459953,4.662 11.1330044,4.79399868 10.253,5.058 C9.3729956,5.32200132 8.59200341,5.75099703 7.91,6.345 C7.22799659,6.93900297 6.68900198,7.7254951 6.293,8.7045 C5.89699802,9.68350489 5.699,10.8879928 5.699,12.318 L5.699,12.318 Z M46.421,0.669 L54.902,0.669 C57.1240111,0.669 58.9719926,0.971496975 60.446,1.5765 C61.9200074,2.18150302 63.0969956,3.01199472 63.977,4.068 C64.8570044,5.12400528 65.4839981,6.3614929 65.858,7.7805 C66.2320019,9.1995071 66.419,10.7339917 66.419,12.384 C66.419,13.990008 66.2265019,15.496993 65.8415,16.905 C65.4564981,18.313007 64.8185045,19.5449947 63.9275,20.601 C63.0364955,21.6570053 61.8540074,22.487497 60.38,23.0925 C58.9059926,23.697503 57.0800109,24 54.902,24 L46.421,24 L46.421,0.669 Z M55.661,19.677 C56.651005,19.677 57.4979965,19.4955018 58.202,19.1325 C58.9060035,18.7694982 59.4779978,18.2580033 59.918,17.598 C60.3580022,16.9379967 60.682499,16.1625045 60.8915,15.2715 C61.100501,14.3804955 61.205,13.4070053 61.205,12.351 C61.205,11.2949947 61.106001,10.3160045 60.908,9.414 C60.709999,8.51199549 60.3910022,7.7310033 59.951,7.071 C59.5109978,6.4109967 58.9335036,5.89400187 58.2185,5.52 C57.5034964,5.14599813 56.6290052,4.959 55.595,4.959 L51.635,4.959 L51.635,19.677 L55.661,19.677 Z M70.115,24 L70.115,0.669 L86.681,0.669 L86.681,4.959 L75.329,4.959 L75.329,10.074 L85.163,10.074 L85.163,14.397 L75.329,14.397 L75.329,19.677 L86.681,19.677 L86.681,24 L70.115,24 Z M94.799,12.318 C94.799,13.7480071 94.996998,14.9524951 95.393,15.9315 C95.789002,16.9105049 96.3279966,17.702497 97.01,18.3075 C97.6920034,18.912503 98.4729956,19.3469987 99.353,19.611 C100.233004,19.8750013 101.156995,20.007 102.125,20.007 C102.719003,20.007 103.274497,19.9685004 103.7915,19.8915 C104.308503,19.8144996 104.753998,19.7210005 105.128,19.611 C105.568002,19.5009994 105.974998,19.3800007 106.349,19.248 L107.075,23.406 C106.656998,23.5820009 106.162003,23.7359993 105.59,23.868 C105.083997,24.0000007 104.490003,24.1154995 103.808,24.2145 C103.125997,24.3135005 102.334005,24.363 101.432,24.363 C99.42999,24.363 97.6810075,24.0770029 96.185,23.505 C94.6889925,22.9329971 93.4570048,22.1245052 92.489,21.0795 C91.5209952,20.0344948 90.7950024,18.7750074 90.311,17.301 C89.8269976,15.8269926 89.585,14.1770091 89.585,12.351 C89.585,10.5029908 89.8379975,8.83650742 90.344,7.3515 C90.8500025,5.86649257 91.6089949,4.60150522 92.621,3.5565 C93.6330051,2.51149478 94.8814926,1.7085028 96.3665,1.1475 C97.8515074,0.586497195 99.5619903,0.306 101.498,0.306 C102.400005,0.306 103.197497,0.355499505 103.8905,0.4545 C104.583503,0.553500495 105.160998,0.65799945 105.623,0.768 C106.195003,0.92200077 106.678998,1.08699912 107.075,1.263 L106.349,5.421 C105.974998,5.28899934 105.568002,5.15700066 105.128,5.025 C104.709998,4.93699956 104.253502,4.85450038 103.7585,4.7775 C103.263498,4.70049962 102.708003,4.662 102.092,4.662 C101.145995,4.662 100.233004,4.79399868 99.353,5.058 C98.4729956,5.32200132 97.6920034,5.75099703 97.01,6.345 C96.3279966,6.93900297 95.789002,7.7254951 95.393,8.7045 C94.996998,9.68350489 94.799,10.8879928 94.799,12.318 L94.799,12.318 Z M124.07,0.669 L132.023,24 L126.71,24 L124.961,18.687 L116.744,18.687 L114.995,24 L109.682,24 L117.635,0.669 L124.07,0.669 Z M120.176,8.094 L117.833,14.859 L123.839,14.859 L121.529,8.094 L120.836,5.388 L120.176,8.094 Z M142.154,0.669 L147.599,13.935 L153.044,0.669 L158.951,0.669 L160.766,24 L155.519,24 L154.463,10.536 L154.43,8.094 L149.414,19.842 L145.784,19.842 L140.801,8.127 L140.735,10.503 L139.712,24 L134.432,24 L136.247,0.669 L142.154,0.669 Z" id="CODECAM" fill="#222222"></path>
        <circle id="Oval" fill="#D31B33" cx="31.5" cy="12.5" r="11.5"></circle>
    </g>
</svg>